#N canvas 85 25 1463 965 12;
#X obj 872 55 sel 32;
#X obj 872 31 key;
#X obj 668 31 key;
#X obj 668 55 sel 111;
#X text 699 35 o;
#X text 904 31 space;
#X text 924 56 play/pause for sequencer;
#X text 726 54 octave adjust;
#X obj 166 963 *~;
#X obj 226 933 line~;
#X msg 226 903 \$1 50;
#X obj 184 825 osc~;
#X msg 184 745 \$1 8;
#X obj 184 775 line~;
#X obj 166 933 osc~;
#X obj 166 903 +~;
#X obj 184 873 *~;
#X obj 126 775 line~;
#X msg 126 745 \$1 8;
#X obj 229 827 hsl 100 15 0 2000 0 0 empty empty harmonic_fm -2 -8
0 10 -262144 -1 -1 0 1;
#X obj 229 877 hsl 100 15 0 1 0 0 empty empty vol -2 -8 0 10 -262144
-1 -1 0 1;
#X obj 464 86 ratatouille~;
#X floatatom 384 26 5 0 0 1 fundamental_frequency - -;
#X text 1 743 fundamental (hz);
#X obj 504 993 *~;
#X obj 564 963 line~;
#X msg 564 933 \$1 50;
#X obj 522 855 osc~;
#X msg 522 775 \$1 8;
#X obj 522 805 line~;
#X obj 504 963 osc~;
#X obj 504 933 +~;
#X obj 522 903 *~;
#X obj 464 805 line~;
#X msg 464 775 \$1 8;
#X obj 685 837 hsl 100 15 0 2000 0 0 empty empty melodic_fm -2 -8 0
10 -262144 -1 -1 0 1;
#X obj 685 887 hsl 100 15 0 1 0 0 empty empty vol -2 -8 0 10 -262144
-1 -1 0 1;
#X text 376 775 melody (hz);
#X text 564 773 melody (hz);
#X text 225 743 melody (hz);
#X obj 912 993 *~;
#X obj 972 963 line~;
#X msg 972 933 \$1 50;
#X obj 930 855 osc~;
#X msg 930 775 \$1 8;
#X obj 930 805 line~;
#X obj 912 963 osc~;
#X obj 912 933 +~;
#X obj 930 903 *~;
#X obj 872 805 line~;
#X msg 872 775 \$1 8;
#X text 784 775 melody (hz);
#X text 972 773 melody (hz);
#X text 498 722 LEFT CHANNEL;
#X text 900 720 RIGHT CHANNEL;
#X floatatom 170 243 5 0 0 0 bpm - -;
#X obj 170 272 t b f;
#X obj 184 332 /;
#X msg 170 302 60000;
#X floatatom 184 363 5 0 0 0 tempo_ms - -;
#X text 69 302 bpm to metro;
#X obj 684 1118 dac~;
#X connect 0 0 21 2;
#X connect 1 0 0 0;
#X connect 2 0 3 0;
#X connect 3 0 21 1;
#X connect 8 0 61 0;
#X connect 8 0 61 1;
#X connect 9 0 8 1;
#X connect 10 0 9 0;
#X connect 11 0 16 0;
#X connect 12 0 13 0;
#X connect 13 0 11 0;
#X connect 14 0 8 0;
#X connect 15 0 14 0;
#X connect 16 0 15 1;
#X connect 17 0 15 0;
#X connect 18 0 17 0;
#X connect 19 0 16 1;
#X connect 20 0 10 0;
#X connect 21 0 34 0;
#X connect 21 0 28 0;
#X connect 21 0 12 0;
#X connect 21 1 50 0;
#X connect 21 1 44 0;
#X connect 22 0 21 0;
#X connect 22 0 18 0;
#X connect 24 0 61 0;
#X connect 25 0 24 1;
#X connect 26 0 25 0;
#X connect 27 0 32 0;
#X connect 28 0 29 0;
#X connect 29 0 27 0;
#X connect 30 0 24 0;
#X connect 31 0 30 0;
#X connect 32 0 31 1;
#X connect 33 0 31 0;
#X connect 34 0 33 0;
#X connect 35 0 32 1;
#X connect 35 0 48 1;
#X connect 36 0 26 0;
#X connect 36 0 42 0;
#X connect 40 0 61 1;
#X connect 41 0 40 1;
#X connect 42 0 41 0;
#X connect 43 0 48 0;
#X connect 44 0 45 0;
#X connect 45 0 43 0;
#X connect 46 0 40 0;
#X connect 47 0 46 0;
#X connect 48 0 47 1;
#X connect 49 0 47 0;
#X connect 50 0 49 0;
#X connect 55 0 56 0;
#X connect 56 0 58 0;
#X connect 56 1 57 1;
#X connect 57 0 59 0;
#X connect 58 0 57 0;
