#N canvas 0 25 1920 965 12;
#X text 546 1403 comment;
#X floatatom 382 670 5 0 0 0 to - -;
#X floatatom 382 640 5 0 0 0 ratio_of - -;
#X obj 864 760 /;
#X obj 832 833 i;
#X obj 800 810 t f f;
#X obj 814 857 -;
#X floatatom 814 881 5 0 0 0 - - -;
#X obj 322 123 tgl 15 0 empty empty octave_adjust 17 7 0 10 -204786
-1 -1 0 1;
#X obj 894 930 tgl 15 0 empty empty empty 17 7 0 10 -262144 -1 -1 0
1;
#X obj 944 930 tgl 15 0 empty empty empty 17 7 0 10 -262144 -1 -1 1
1;
#X obj 894 904 bng 15 250 50 0 empty empty empty 17 7 0 10 -262144
-1 -1;
#X obj 944 894 loadbang;
#X obj 816 955 spigot;
#X obj 878 955 spigot;
#X floatatom 442 670 5 0 0 0 is - -;
#X obj 791 853 bng 15 250 50 0 empty empty empty 17 7 0 10 -262144
-1 -1;
#X obj 814 911 + 1;
#X obj 750 885 t b b;
#X obj 322 233 tgl 15 0 empty empty metronome_on 17 7 0 10 -261234
-1 -1 0 1;
#X floatatom 442 260 5 0 0 0 numerator_tempo - -;
#X floatatom 442 290 5 0 0 0 denominator_tempo - -;
#X obj 260 -116 metro;
#X obj 338 -99 metro;
#X obj -171 -334 loadbang;
#X msg -141 -300 1000;
#X floatatom 252 150 6 0 0 0 fundamental - -;
#X msg -199 -256 300;
#X floatatom 442 180 5 0 0 0 to_fundamental - -;
#X floatatom 442 150 5 0 0 0 ratio_of_interval - -;
#X obj 642 -144 /;
#X floatatom 642 -94 9 0 0 0 * - -;
#X obj 640 -166 bng 15 250 50 0 empty empty empty 17 7 0 10 -262144
-1 -1;
#X obj 634 -69 *;
#X obj 645 -117 bng 15 250 50 0 empty empty empty 17 7 0 10 -262144
-1 -1;
#X msg -146 -262 1;
#X obj -100 373 line;
#X obj -100 397 int;
#X msg -100 347 \$1 \$2;
#X obj -100 321 pack 1 2;
#X floatatom 252 260 5 0 0 0 slew_ms - -;
#X obj -376 331 line;
#X obj -376 361 int;
#X msg -376 305 \$1 \$2;
#X obj -376 279 pack 1 2;
#X obj -222 60 i;
#X obj -192 60 + 1;
#X obj -395 60 i;
#X obj -365 60 + 1;
#X obj -395 84 % 4;
#X obj -395 108 sel 0 1 2 3;
#X floatatom 132 460 5 0 0 0 - - -;
#X floatatom 172 460 5 0 0 0 - - -;
#X floatatom 212 460 5 0 0 0 - - -;
#X floatatom 132 590 5 0 0 0 - - -;
#X floatatom 172 590 5 0 0 0 - - -;
#X floatatom 212 590 5 0 0 0 - - -;
#X floatatom 252 590 5 0 0 0 - - -;
#X floatatom 252 380 5 1 4 0 numerator_modulo - -;
#X obj 1094 382 line;
#X obj 1094 406 int;
#X msg 1094 356 \$1 \$2;
#X obj 1094 330 pack 1 2;
#X obj 1331 396 line;
#X obj 1331 420 int;
#X msg 1331 370 \$1 \$2;
#X obj 1331 344 pack 1 2;
#X obj 1093 161 i;
#X obj 1123 161 + 1;
#X obj 1335 114 i;
#X obj 1365 114 + 1;
#X obj 1335 138 % 4;
#X obj 1335 162 sel 0 1 2 3;
#X floatatom 322 460 5 0 0 0 - - -;
#X floatatom 362 460 5 0 0 0 - - -;
#X floatatom 402 460 5 0 0 0 - - -;
#X floatatom 322 590 5 0 0 0 - - -;
#X floatatom 362 590 5 0 0 0 - - -;
#X floatatom 402 590 5 0 0 0 - - -;
#X floatatom 442 590 5 0 0 0 - - -;
#X obj -75 1030 *;
#X floatatom 192 670 5 0 0 0 to - -;
#X floatatom 192 640 5 0 0 0 ratio_of - -;
#X obj -112 791 /;
#X obj -144 864 i;
#X obj -176 841 t f f;
#X obj -162 888 -;
#X floatatom -162 912 5 0 0 0 - - -;
#X obj -82 961 tgl 15 0 empty empty empty 17 7 0 10 -262144 -1 -1 0
1;
#X obj -32 961 tgl 15 0 empty empty empty 17 7 0 10 -262144 -1 -1 1
1;
#X obj -82 935 bng 15 250 50 0 empty empty empty 17 7 0 10 -262144
-1 -1;
#X obj -32 925 loadbang;
#X obj -163 990 spigot;
#X obj -113 990 spigot;
#X floatatom 252 670 5 0 0 0 is - -;
#X obj -185 884 bng 15 250 50 0 empty empty empty 17 7 0 10 -262144
-1 -1;
#X obj -162 942 + 1;
#X obj -226 916 t b b;
#X obj 499 -307 inlet;
#X obj 816 1006 *;
#X floatatom 252 510 5 1 4 0 denominator_modulo - -;
#X floatatom 442 380 5 1 4 0 numerator_modulo - -;
#X floatatom 442 510 5 1 4 0 denominator_modulo - -;
#X obj 1093 185 % 4;
#X obj -222 84 % 4;
#X obj 1093 209 sel 0 1 2 3;
#X obj -222 108 sel 0 1 2 3;
#X obj -201 -298 t b b b;
#X obj -142 -204 t b b;
#X msg -146 -161 2;
#X msg -100 -162 3;
#X floatatom 252 460 5 0 0 0 - - -;
#X floatatom 442 460 5 0 0 0 - - -;
#X obj 132 223 cnv 15 160 25 empty empty SEQUENCER 20 12 0 14 -261234
-1 0;
#X obj 132 333 cnv 15 160 25 empty empty FUNDAMENTAL 20 12 0 14 -261682
-1 0;
#X obj 322 333 cnv 15 160 25 empty empty INTERVAL 20 12 0 14 -262130
-1 0;
#X obj 293 -317 inlet;
#X floatatom 252 290 5 0 12 0 fill_all_steps - -;
#X obj -75 1057 outlet;
#X obj 816 1035 outlet;
#X obj 132 408 hradio 40 1 0 4 empty empty empty 0 -8 0 10 -262144
-1 -1 0;
#X obj 132 538 hradio 40 1 0 4 empty empty empty 0 -8 0 10 -262144
-1 -1 0;
#X text -941 742 comment;
#X obj 132 113 cnv 15 160 25 empty empty FREQUENCY 20 12 0 14 -204786
-1 0;
#X text 110 701 * fundamental frequency =;
#X text 321 701 * interval frequency =;
#X obj 134 -309 inlet;
#X obj 322 408 hradio 40 1 0 4 empty empty empty 0 -8 0 10 -262144
-1 -1 0;
#X obj 322 538 hradio 40 1 0 4 empty empty empty 0 -8 0 10 -262144
-1 -1 0;
#X connect 1 0 3 1;
#X connect 1 0 16 0;
#X connect 2 0 3 0;
#X connect 3 0 5 0;
#X connect 3 0 14 0;
#X connect 4 0 6 1;
#X connect 5 0 6 0;
#X connect 5 1 4 0;
#X connect 6 0 7 0;
#X connect 7 0 17 0;
#X connect 8 0 18 0;
#X connect 8 0 97 0;
#X connect 9 0 13 1;
#X connect 10 0 14 1;
#X connect 11 0 9 0;
#X connect 11 0 10 0;
#X connect 12 0 10 0;
#X connect 13 0 15 0;
#X connect 13 0 99 0;
#X connect 14 0 15 0;
#X connect 14 0 99 0;
#X connect 16 0 2 0;
#X connect 17 0 13 0;
#X connect 18 0 16 0;
#X connect 18 1 11 0;
#X connect 19 0 22 0;
#X connect 19 0 23 0;
#X connect 20 0 22 1;
#X connect 21 0 23 1;
#X connect 22 0 45 0;
#X connect 22 0 67 0;
#X connect 23 0 47 0;
#X connect 23 0 69 0;
#X connect 24 0 25 0;
#X connect 24 0 107 0;
#X connect 25 0 20 0;
#X connect 25 0 21 0;
#X connect 26 0 33 1;
#X connect 26 0 34 0;
#X connect 26 0 80 1;
#X connect 27 0 26 0;
#X connect 28 0 30 1;
#X connect 28 0 32 0;
#X connect 29 0 30 0;
#X connect 30 0 31 0;
#X connect 31 0 33 0;
#X connect 32 0 29 0;
#X connect 33 0 99 1;
#X connect 34 0 31 0;
#X connect 35 0 29 0;
#X connect 35 0 28 0;
#X connect 36 0 37 0;
#X connect 37 0 82 0;
#X connect 38 0 36 0;
#X connect 39 0 38 0;
#X connect 40 0 39 1;
#X connect 40 0 44 1;
#X connect 40 0 62 1;
#X connect 40 0 66 1;
#X connect 41 0 42 0;
#X connect 42 0 81 0;
#X connect 43 0 41 0;
#X connect 44 0 43 0;
#X connect 45 0 46 0;
#X connect 45 0 104 0;
#X connect 46 0 45 1;
#X connect 47 0 48 0;
#X connect 47 0 49 0;
#X connect 48 0 47 1;
#X connect 49 0 50 0;
#X connect 49 0 121 0;
#X connect 50 0 54 0;
#X connect 50 1 55 0;
#X connect 50 2 56 0;
#X connect 50 3 57 0;
#X connect 51 0 39 0;
#X connect 52 0 39 0;
#X connect 53 0 39 0;
#X connect 54 0 44 0;
#X connect 55 0 44 0;
#X connect 56 0 44 0;
#X connect 57 0 44 0;
#X connect 58 0 104 1;
#X connect 59 0 60 0;
#X connect 60 0 2 0;
#X connect 61 0 59 0;
#X connect 62 0 61 0;
#X connect 63 0 64 0;
#X connect 64 0 1 0;
#X connect 65 0 63 0;
#X connect 66 0 65 0;
#X connect 67 0 68 0;
#X connect 67 0 103 0;
#X connect 68 0 67 1;
#X connect 69 0 70 0;
#X connect 69 0 71 0;
#X connect 70 0 69 1;
#X connect 71 0 72 0;
#X connect 71 0 128 0;
#X connect 72 0 76 0;
#X connect 72 1 77 0;
#X connect 72 2 78 0;
#X connect 72 3 79 0;
#X connect 73 0 62 0;
#X connect 74 0 62 0;
#X connect 75 0 62 0;
#X connect 76 0 66 0;
#X connect 77 0 66 0;
#X connect 78 0 66 0;
#X connect 79 0 66 0;
#X connect 80 0 118 0;
#X connect 81 0 83 1;
#X connect 81 0 95 0;
#X connect 82 0 83 0;
#X connect 83 0 85 0;
#X connect 83 0 93 0;
#X connect 84 0 86 1;
#X connect 85 0 86 0;
#X connect 85 1 84 0;
#X connect 86 0 87 0;
#X connect 87 0 96 0;
#X connect 88 0 92 1;
#X connect 89 0 93 1;
#X connect 90 0 88 0;
#X connect 90 0 89 0;
#X connect 91 0 89 0;
#X connect 92 0 94 0;
#X connect 92 0 80 0;
#X connect 93 0 94 0;
#X connect 93 0 80 0;
#X connect 95 0 82 0;
#X connect 96 0 92 0;
#X connect 97 0 95 0;
#X connect 97 1 90 0;
#X connect 98 0 19 0;
#X connect 99 0 119 0;
#X connect 100 0 49 1;
#X connect 101 0 103 1;
#X connect 102 0 71 1;
#X connect 103 0 105 0;
#X connect 103 0 127 0;
#X connect 104 0 106 0;
#X connect 104 0 120 0;
#X connect 105 0 73 0;
#X connect 105 1 74 0;
#X connect 105 2 75 0;
#X connect 105 4 112 0;
#X connect 106 0 51 0;
#X connect 106 1 52 0;
#X connect 106 2 53 0;
#X connect 106 3 111 0;
#X connect 107 0 27 0;
#X connect 107 1 35 0;
#X connect 107 2 108 0;
#X connect 108 0 109 0;
#X connect 108 1 110 0;
#X connect 109 0 58 0;
#X connect 109 0 101 0;
#X connect 110 0 100 0;
#X connect 110 0 102 0;
#X connect 111 0 39 0;
#X connect 112 0 62 0;
#X connect 116 0 8 0;
#X connect 117 0 51 0;
#X connect 117 0 52 0;
#X connect 117 0 53 0;
#X connect 117 0 111 0;
#X connect 117 0 54 0;
#X connect 117 0 55 0;
#X connect 117 0 56 0;
#X connect 117 0 57 0;
#X connect 117 0 73 0;
#X connect 117 0 74 0;
#X connect 117 0 75 0;
#X connect 117 0 112 0;
#X connect 117 0 76 0;
#X connect 117 0 77 0;
#X connect 117 0 78 0;
#X connect 117 0 79 0;
#X connect 126 0 26 0;
#X coords 0 -1 1 1 415 630 2 100 100;
