#N canvas 0 25 1920 965 12;
#X text 1609 953 this is the abstraction version of trentratio.;
#X text 1612 985 could eventually be used for quad.;
#X text 1610 1078 all four ratio makers are connected to;
#X text 1609 1014 essentially - four ratio makers. each with a 3 part
source value list and a 4-part divisor list;
#X text 1733 1101 a complexity (a modulo for amt from 1 to 4 \, or
check that its not 0 to 3) that goes into the 4-part divisor list.
loadbang 1;
#X text 546 1403 comment;
#X text 1616 1278 guess they can each have their own freeverb. thats
the benefit to using freeverb lol!!;
#X text 1732 1157 a main tempo that goes to all the 3 part source value
lists and also a second main tempo that goes to all the 4 part divisor
lists;
#X text 1620 1340 4 outputs. 1 is fundamental \, 2 is interval \, 3
is L \, 4 is R;
#X text 1738 1374 R is multiplied by whatever the interval pitch is
;
#X text 1731 1224 octave lock toggle hotkey;
#X text 1618 1410 should have a basic ratio to make the interval (also
so that its easy for people to learn whats going on \, kinda like a
tutorial lol).;
#X floatatom 382 670 5 0 0 0 to - -;
#X floatatom 382 640 5 0 0 0 ratio_of - -;
#X obj 864 760 /;
#X obj 832 833 i;
#X obj 800 810 t f f;
#X obj 814 857 -;
#X floatatom 814 881 5 0 0 0 - - -;
#X obj 322 123 tgl 15 0 empty empty octave_adjust 17 7 0 10 -204786
-1 -1 0 1;
#X obj 894 930 tgl 15 0 empty empty empty 17 7 0 10 -262144 -1 -1 0
1;
#X obj 944 930 tgl 15 0 empty empty empty 17 7 0 10 -262144 -1 -1 1
1;
#X obj 894 904 bng 15 250 50 0 empty empty empty 17 7 0 10 -262144
-1 -1;
#X obj 944 894 loadbang;
#X obj 816 955 spigot;
#X obj 878 955 spigot;
#X floatatom 442 670 5 0 0 0 is - -;
#X obj 791 853 bng 15 250 50 0 empty empty empty 17 7 0 10 -262144
-1 -1;
#X obj 814 911 + 1;
#X obj 750 885 t b b;
#X obj 322 233 tgl 15 0 empty empty metronome_on 17 7 0 10 -261234
-1 -1 0 1;
#X floatatom 442 260 5 0 0 0 numerator_tempo - -;
#X floatatom 442 290 5 0 0 0 denominator_tempo - -;
#X obj 260 -116 metro;
#X obj 338 -99 metro;
#X obj -171 -334 loadbang;
#X msg -141 -300 1000;
#X floatatom 252 150 6 0 0 0 fundamental - -;
#X msg -199 -256 300;
#X floatatom 442 180 5 0 0 0 to_fundamental - -;
#X floatatom 442 150 5 0 0 0 ratio_of_interval - -;
#X obj 642 -144 /;
#X floatatom 642 -94 9 0 0 0 * - -;
#X obj 640 -166 bng 15 250 50 0 empty empty empty 17 7 0 10 -262144
-1 -1;
#X obj 634 -69 *;
#X obj 645 -117 bng 15 250 50 0 empty empty empty 17 7 0 10 -262144
-1 -1;
#X msg -146 -262 1;
#X obj -100 373 line;
#X obj -100 397 int;
#X msg -100 347 \$1 \$2;
#X obj -100 321 pack 1 2;
#X floatatom 252 260 5 0 0 0 slew_ms - -;
#X obj -376 331 line;
#X obj -376 361 int;
#X msg -376 305 \$1 \$2;
#X obj -376 279 pack 1 2;
#X obj -222 60 i;
#X obj -192 60 + 1;
#X obj -395 60 i;
#X obj -365 60 + 1;
#X obj -395 84 % 4;
#X obj -395 108 sel 0 1 2 3;
#X floatatom 132 460 5 0 0 0 - - -;
#X floatatom 172 460 5 0 0 0 - - -;
#X floatatom 212 460 5 0 0 0 - - -;
#X floatatom 132 590 5 0 0 0 - - -;
#X floatatom 172 590 5 0 0 0 - - -;
#X floatatom 212 590 5 0 0 0 - - -;
#X floatatom 252 590 5 0 0 0 - - -;
#X floatatom 252 380 5 1 4 0 numerator_modulo - -;
#X obj 1094 382 line;
#X obj 1094 406 int;
#X msg 1094 356 \$1 \$2;
#X obj 1094 330 pack 1 2;
#X obj 1331 396 line;
#X obj 1331 420 int;
#X msg 1331 370 \$1 \$2;
#X obj 1331 344 pack 1 2;
#X obj 1093 161 i;
#X obj 1123 161 + 1;
#X obj 1335 114 i;
#X obj 1365 114 + 1;
#X obj 1335 138 % 4;
#X obj 1335 162 sel 0 1 2 3;
#X floatatom 322 460 5 0 0 0 - - -;
#X floatatom 362 460 5 0 0 0 - - -;
#X floatatom 402 460 5 0 0 0 - - -;
#X floatatom 322 590 5 0 0 0 - - -;
#X floatatom 362 590 5 0 0 0 - - -;
#X floatatom 402 590 5 0 0 0 - - -;
#X floatatom 442 590 5 0 0 0 - - -;
#X obj -75 1030 *;
#X floatatom 192 670 5 0 0 0 to - -;
#X floatatom 192 640 5 0 0 0 ratio_of - -;
#X obj -112 791 /;
#X obj -144 864 i;
#X obj -176 841 t f f;
#X obj -162 888 -;
#X floatatom -162 912 5 0 0 0 - - -;
#X obj -82 961 tgl 15 0 empty empty empty 17 7 0 10 -262144 -1 -1 0
1;
#X obj -32 961 tgl 15 0 empty empty empty 17 7 0 10 -262144 -1 -1 1
1;
#X obj -82 935 bng 15 250 50 0 empty empty empty 17 7 0 10 -262144
-1 -1;
#X obj -32 925 loadbang;
#X obj -163 990 spigot;
#X obj -113 990 spigot;
#X floatatom 252 670 5 0 0 0 is - -;
#X obj -185 884 bng 15 250 50 0 empty empty empty 17 7 0 10 -262144
-1 -1;
#X obj -162 942 + 1;
#X obj -226 916 t b b;
#X obj 499 -307 inlet;
#X obj 816 1006 *;
#X floatatom 252 510 5 1 4 0 denominator_modulo - -;
#X floatatom 442 380 5 1 4 0 numerator_modulo - -;
#X floatatom 442 510 5 1 4 0 denominator_modulo - -;
#X obj 1093 185 % 4;
#X obj -222 84 % 4;
#X obj 1093 209 sel 0 1 2 3;
#X obj -222 108 sel 0 1 2 3;
#X obj -201 -298 t b b b;
#X obj -142 -204 t b b;
#X msg -146 -161 2;
#X msg -100 -162 3;
#X floatatom 252 460 5 0 0 0 - - -;
#X floatatom 442 460 5 0 0 0 - - -;
#X obj 132 223 cnv 15 160 25 empty empty SEQUENCER 20 12 0 14 -261234
-1 0;
#X obj 132 333 cnv 15 160 25 empty empty FUNDAMENTAL 20 12 0 14 -261682
-1 0;
#X obj 322 333 cnv 15 160 25 empty empty INTERVAL 20 12 0 14 -262130
-1 0;
#X obj 293 -317 inlet;
#X floatatom 252 290 5 0 12 0 fill_all_steps - -;
#X obj -75 1057 outlet;
#X obj 816 1035 outlet;
#X obj 132 408 hradio 40 1 0 4 empty empty empty 0 -8 0 10 -262144
-1 -1 0;
#X obj 132 538 hradio 40 1 0 4 empty empty empty 0 -8 0 10 -262144
-1 -1 0;
#X text -941 742 comment;
#X obj 132 113 cnv 15 160 25 empty empty FREQUENCY 20 12 0 14 -204786
-1 0;
#X text 110 701 * fundamental frequency =;
#X text 321 701 * interval frequency =;
#X obj 134 -309 inlet;
#X obj 322 408 hradio 40 1 0 4 empty empty empty 0 -8 0 10 -262144
-1 -1 0;
#X obj 322 538 hradio 40 1 0 4 empty empty empty 0 -8 0 10 -262144
-1 -1 0;
#X connect 12 0 14 1;
#X connect 12 0 27 0;
#X connect 13 0 14 0;
#X connect 14 0 16 0;
#X connect 14 0 25 0;
#X connect 15 0 17 1;
#X connect 16 0 17 0;
#X connect 16 1 15 0;
#X connect 17 0 18 0;
#X connect 18 0 28 0;
#X connect 19 0 29 0;
#X connect 19 0 108 0;
#X connect 20 0 24 1;
#X connect 21 0 25 1;
#X connect 22 0 20 0;
#X connect 22 0 21 0;
#X connect 23 0 21 0;
#X connect 24 0 26 0;
#X connect 24 0 110 0;
#X connect 25 0 26 0;
#X connect 25 0 110 0;
#X connect 27 0 13 0;
#X connect 28 0 24 0;
#X connect 29 0 27 0;
#X connect 29 1 22 0;
#X connect 30 0 33 0;
#X connect 30 0 34 0;
#X connect 31 0 33 1;
#X connect 32 0 34 1;
#X connect 33 0 56 0;
#X connect 33 0 78 0;
#X connect 34 0 58 0;
#X connect 34 0 80 0;
#X connect 35 0 36 0;
#X connect 35 0 118 0;
#X connect 36 0 31 0;
#X connect 36 0 32 0;
#X connect 37 0 44 1;
#X connect 37 0 45 0;
#X connect 37 0 91 1;
#X connect 38 0 37 0;
#X connect 39 0 41 1;
#X connect 39 0 43 0;
#X connect 40 0 41 0;
#X connect 41 0 42 0;
#X connect 42 0 44 0;
#X connect 43 0 40 0;
#X connect 44 0 110 1;
#X connect 45 0 42 0;
#X connect 46 0 40 0;
#X connect 46 0 39 0;
#X connect 47 0 48 0;
#X connect 48 0 93 0;
#X connect 49 0 47 0;
#X connect 50 0 49 0;
#X connect 51 0 50 1;
#X connect 51 0 55 1;
#X connect 51 0 73 1;
#X connect 51 0 77 1;
#X connect 52 0 53 0;
#X connect 53 0 92 0;
#X connect 54 0 52 0;
#X connect 55 0 54 0;
#X connect 56 0 57 0;
#X connect 56 0 115 0;
#X connect 57 0 56 1;
#X connect 58 0 59 0;
#X connect 58 0 60 0;
#X connect 59 0 58 1;
#X connect 60 0 61 0;
#X connect 60 0 132 0;
#X connect 61 0 65 0;
#X connect 61 1 66 0;
#X connect 61 2 67 0;
#X connect 61 3 68 0;
#X connect 62 0 50 0;
#X connect 63 0 50 0;
#X connect 64 0 50 0;
#X connect 65 0 55 0;
#X connect 66 0 55 0;
#X connect 67 0 55 0;
#X connect 68 0 55 0;
#X connect 69 0 115 1;
#X connect 70 0 71 0;
#X connect 71 0 13 0;
#X connect 72 0 70 0;
#X connect 73 0 72 0;
#X connect 74 0 75 0;
#X connect 75 0 12 0;
#X connect 76 0 74 0;
#X connect 77 0 76 0;
#X connect 78 0 79 0;
#X connect 78 0 114 0;
#X connect 79 0 78 1;
#X connect 80 0 81 0;
#X connect 80 0 82 0;
#X connect 81 0 80 1;
#X connect 82 0 83 0;
#X connect 82 0 139 0;
#X connect 83 0 87 0;
#X connect 83 1 88 0;
#X connect 83 2 89 0;
#X connect 83 3 90 0;
#X connect 84 0 73 0;
#X connect 85 0 73 0;
#X connect 86 0 73 0;
#X connect 87 0 77 0;
#X connect 88 0 77 0;
#X connect 89 0 77 0;
#X connect 90 0 77 0;
#X connect 91 0 129 0;
#X connect 92 0 94 1;
#X connect 92 0 106 0;
#X connect 93 0 94 0;
#X connect 94 0 96 0;
#X connect 94 0 104 0;
#X connect 95 0 97 1;
#X connect 96 0 97 0;
#X connect 96 1 95 0;
#X connect 97 0 98 0;
#X connect 98 0 107 0;
#X connect 99 0 103 1;
#X connect 100 0 104 1;
#X connect 101 0 99 0;
#X connect 101 0 100 0;
#X connect 102 0 100 0;
#X connect 103 0 105 0;
#X connect 103 0 91 0;
#X connect 104 0 105 0;
#X connect 104 0 91 0;
#X connect 106 0 93 0;
#X connect 107 0 103 0;
#X connect 108 0 106 0;
#X connect 108 1 101 0;
#X connect 109 0 30 0;
#X connect 110 0 130 0;
#X connect 111 0 60 1;
#X connect 112 0 114 1;
#X connect 113 0 82 1;
#X connect 114 0 116 0;
#X connect 114 0 138 0;
#X connect 115 0 117 0;
#X connect 115 0 131 0;
#X connect 116 0 84 0;
#X connect 116 1 85 0;
#X connect 116 2 86 0;
#X connect 116 4 123 0;
#X connect 117 0 62 0;
#X connect 117 1 63 0;
#X connect 117 2 64 0;
#X connect 117 3 122 0;
#X connect 118 0 38 0;
#X connect 118 1 46 0;
#X connect 118 2 119 0;
#X connect 119 0 120 0;
#X connect 119 1 121 0;
#X connect 120 0 69 0;
#X connect 120 0 112 0;
#X connect 121 0 111 0;
#X connect 121 0 113 0;
#X connect 122 0 50 0;
#X connect 123 0 73 0;
#X connect 127 0 19 0;
#X connect 128 0 62 0;
#X connect 128 0 63 0;
#X connect 128 0 64 0;
#X connect 128 0 122 0;
#X connect 128 0 65 0;
#X connect 128 0 66 0;
#X connect 128 0 67 0;
#X connect 128 0 68 0;
#X connect 128 0 84 0;
#X connect 128 0 85 0;
#X connect 128 0 86 0;
#X connect 128 0 123 0;
#X connect 128 0 87 0;
#X connect 128 0 88 0;
#X connect 128 0 89 0;
#X connect 128 0 90 0;
#X connect 137 0 37 0;
#X coords 0 -1 1 1 415 630 2 100 100;
